<?xml version="1.0" encoding="UTF-8"?>
<svg id="Ebene_1" xmlns="http://www.w3.org/2000/svg" version="1.1" viewBox="0 0 500 500">
  <!-- Generator: Adobe Illustrator 29.7.1, SVG Export Plug-In . SVG Version: 2.1.1 Build 8)  -->
  <defs>
    <style>
      .st0 {
        fill: #3c65aa;
      }
    </style>
  </defs>
  <path class="st0" d="M161.4,59.2v102.4H59V59.2h102.4M207.6.2H12.8C5.7.2,0,5.9,0,13v194.8c0,7.1,5.7,12.8,12.8,12.8h194.8c7.1,0,12.8-5.7,12.8-12.8V13c0-7.1-5.8-12.8-12.8-12.8h0Z"/>
  <path class="st0" d="M161.4,338.6v102.4H59v-102.4h102.4M207.6,279.5H12.8c-7.1,0-12.8,5.7-12.8,12.8v194.8c0,7.1,5.7,12.8,12.8,12.8h194.8c7.1,0,12.8-5.8,12.8-12.8v-194.8c0-7.1-5.8-12.8-12.8-12.8h0Z"/>
  <path class="st0" d="M440.7,338.6v102.4h-102.4v-102.4h102.4M486.9,279.5h-194.5c-7.2,0-13.1,5.9-13.1,13.1v194.3c0,7.2,5.9,13.1,13.1,13.1h194.3c7.2,0,13.1-5.9,13.1-13.1v-194.5c0-7.1-5.8-12.8-12.8-12.8h0Z"/>
  <rect class="st0" x="360" y="-22.9" width="59" height="266.7" rx="13.2" ry="13.2" transform="translate(586.9 464) rotate(-135)"/>
  <rect class="st0" x="360" y="-22.9" width="59" height="266.7" rx="13.1" ry="13.1" transform="translate(36 307.8) rotate(-45)"/>
</svg>