<?xml version="1.0" encoding="UTF-8"?>
<svg id="Ebene_1" xmlns="http://www.w3.org/2000/svg" version="1.1" viewBox="0 0 912.1 194.7">
  <!-- Generator: Adobe Illustrator 29.7.1, SVG Export Plug-In . SVG Version: 2.1.1 Build 8)  -->
  <defs>
    <style>
      .st0 {
        fill: #3c65aa;
      }

      .st1 {
        fill: #f9f9f9;
      }
    </style>
  </defs>
  <g>
    <rect class="st1" x="428.3" y="25.5" width="27.3" height="27.3" rx="5.1" ry="5.1"/>
    <path class="st1" d="M312.8,162.5c-3.5-3.4-5.3-7.9-5.3-13.5V32.2c0-2.8,2.3-5.1,5.1-5.1h17.5c2.8,0,5.1,2.3,5.1,5.1v111.3h71.1c2.8,0,5.1,2.3,5.1,5.1v13.8c0,2.8-2.3,5.1-5.1,5.1h-79.4c-5.9,0-10.6-1.7-14.1-5.1h0Z"/>
    <path class="st1" d="M433.4,67.5h17.1c2.8,0,5.1,2.3,5.1,5.1v89.9c0,2.8-2.3,5.1-5.1,5.1h-17.1c-2.8,0-5.1-2.3-5.1-5.1v-89.9c0-2.8,2.3-5.1,5.1-5.1Z"/>
    <path class="st1" d="M487.6,67.5h15.1c2.8,0,5.1,2.3,5.1,5.1v6.9c2.9-4.1,6.8-7.5,11.4-9.9,4.7-2.5,9.4-3.7,14-3.7h12c10.7,0,19.3,3.3,25.8,10s9.7,15.5,9.7,26.5v60.1c0,2.8-2.3,5.1-5.1,5.1h-17.1c-2.8,0-5.1-2.3-5.1-5.1v-59.1c0-4.1-1.1-7.5-3.3-10s-5.1-3.8-8.5-3.8h-12c-4.7,0-8.9,1.7-12.5,5.1-3.5,3.3-5.9,7.5-7.2,12.8s-.1.8-.1,1.2v53.9c0,2.8-2.3,5.1-5.1,5.1h-17.1c-2.8,0-5.1-2.3-5.1-5.1v-89.9c0-2.8,2.3-5.1,5.1-5.1h0Z"/>
    <path class="st1" d="M626.7,162.6c-7.8-4.4-13.9-10.7-18.2-18.8s-6.4-17.4-6.4-28v-36.9c0-10.6,2.2-19.9,6.5-28s10.5-14.3,18.5-18.8c8-4.4,17.2-6.6,27.6-6.6h21.3c10,0,18.9,2.1,26.5,6.4s13.5,10.3,17.8,18c3.4,6.3,5.5,13.4,6.1,21.3s-2.1,5.5-5.1,5.5h-17.2c-2.5,0-4.8-2.1-5-4.6-.7-5.9-2.7-10.9-6.2-14.8-4.3-4.9-9.9-7.3-16.9-7.3h-21.3c-7.5,0-13.5,2.8-18.1,8.3-4.6,5.6-6.8,12.8-6.8,21.8v34.5c0,9,2.2,16.2,6.6,21.8,4.4,5.6,10.2,8.3,17.5,8.3h17.4c14.2,0,26.5-10.5,28.1-24.7v-.6c.2-2.5,2.5-4.6,5.1-4.6h17.2c2.9,0,5.3,2.5,5.1,5.4-.6,8.6-2.7,16.3-6.2,23.1-4.3,8.2-10.3,14.6-18.1,19.1s-16.7,6.7-26.9,6.7h-21.7c-10.3,0-19.4-2.2-27.2-6.6h0Z"/>
    <path class="st1" d="M754,161.4c-6.4-5.2-9.6-12.1-9.6-20.7v-7.4c0-8.4,3.3-15.2,10-20.4,6.7-5.1,15.5-7.7,26.5-7.7h12.2c3.5,0,7.2.5,11.2,1.4s7.7,2.2,11,3.8v-10.4c0-3.3-1.1-6.1-3.3-8.1-2.2-2.1-5.1-3.1-8.7-3.1h-17.3c-3.7,0-6.8.9-9,2.6-1.4,1-2.3,2.3-2.9,3.8s-2.8,3.2-4.9,3.2h-16.5c-3.2,0-5.7-2.8-5.1-6,1.2-7.1,4.6-12.9,10.3-17.6,7.2-6,16.6-8.9,28.2-8.9h17.3c11.8,0,21.3,3.1,28.5,9.3,7.2,6.2,10.8,14.5,10.8,24.8v62.5c0,2.9-2.3,5.2-5.2,5.2h-14.9c-2.9,0-5.2-2.3-5.2-5.2v-6.9c-3.2,4.1-7.2,7.5-11.8,9.9-4.7,2.5-9.3,3.7-13.8,3.7h-12.4c-10.4,0-18.9-2.6-25.3-7.8h0ZM793.7,148.3c4.9,0,9.4-1.3,13.2-3.8,3.6-2.3,6.2-5.4,8-9.2s.4-1.4.4-2.1h0c0-1.5-.8-3-2.2-3.7s-4.1-1.8-6.7-2.4c-3.8-.9-7.9-1.4-12.1-1.4h-12.6c-3.2,0-5.8.8-7.8,2.4s-3,3.7-3,6.4v5.2c0,2.5,1.1,4.6,3.3,6.2,2.2,1.6,5.1,2.4,8.7,2.4h10.8,0Z"/>
    <path class="st1" d="M873.1,160.1c-5.6-5-8.3-12.8-8.3-23.4V32.2c0-2.8,2.3-5.1,5.1-5.1h17.1c2.8,0,5.1,2.3,5.1,5.1v102.8c0,3.2.7,5.6,2.2,7,1.5,1.5,3.8,2.2,7,2.2h5.7c2.8,0,5.1,2.3,5.1,5.1v13c0,2.8-2.3,5.1-5.1,5.1h-7.7c-11.9,0-20.6-2.5-26.2-7.5v.2h0Z"/>
  </g>
  <g>
    <path class="st0" d="M62.9,23v39.9H23V23h39.9M80.9,0H5C2.2,0,0,2.2,0,5v75.9c0,2.8,2.2,5,5,5h75.9c2.8,0,5-2.2,5-5V5c0-2.8-2.2-5-5-5h0Z"/>
    <path class="st0" d="M62.9,131.8v39.9H23v-39.9h39.9M80.9,108.8H5c-2.8,0-5,2.2-5,5v75.9c0,2.8,2.2,5,5,5h75.9c2.8,0,5-2.2,5-5v-75.9c0-2.8-2.2-5-5-5h0Z"/>
    <path class="st0" d="M171.7,131.8v39.9h-39.9v-39.9h39.9M189.7,108.8h-75.8c-2.8,0-5.1,2.3-5.1,5.1v75.7c0,2.8,2.3,5.1,5.1,5.1h75.7c2.8,0,5.1-2.3,5.1-5.1v-75.8c0-2.8-2.2-5-5-5h0Z"/>
    <rect class="st0" x="99.8" y="31.4" width="103.9" height="23" rx="5.1" ry="5.1" transform="translate(14.1 119.9) rotate(-45)"/>
    <rect class="st0" x="140.3" y="-9" width="23" height="103.9" rx="5.1" ry="5.1" transform="translate(14.1 119.9) rotate(-45)"/>
  </g>
</svg>